<svg id="color" enable-background="new 0 0 24 24" height="512" viewBox="0 0 24 24" width="512" xmlns="http://www.w3.org/2000/svg"><path d="m21 1h-18c-1.654 0-3 1.346-3 3v16c0 1.654 1.346 3 3 3h18c1.654 0 3-1.346 3-3v-16c0-1.654-1.346-3-3-3z" fill="#607d8b"/><path d="m21 21h-18c-.551 0-1-.448-1-1v-14h20v14c0 .552-.449 1-1 1z" fill="#fff"/><path d="m17.303 19.193c-.256 0-.512-.098-.707-.293-2.534-2.535-6.658-2.535-9.192 0-.391.391-1.023.391-1.414 0s-.391-1.023 0-1.414c3.313-3.314 8.707-3.314 12.02 0 .391.391.391 1.023 0 1.414-.195.196-.451.293-.707.293z" fill="#f44336"/><path d="m12 1h-9c-1.654 0-3 1.346-3 3v16c0 1.654 1.346 3 3 3h9v-2h-9c-.551 0-1-.448-1-1v-14h10z" fill="#546d79"/><path d="m12 6h-10v14c0 .552.449 1 1 1h9v-4.001c-1.665 0-3.329.634-4.596 1.901-.195.195-.451.293-.707.293s-.512-.097-.707-.293c-.391-.391-.391-1.023 0-1.414 1.656-1.657 3.833-2.486 6.01-2.486z" fill="#dedede"/><path d="m12 15c-2.177 0-4.354.829-6.01 2.486-.391.391-.391 1.023 0 1.414.195.195.451.293.707.293s.512-.098.707-.293c1.267-1.268 2.932-1.901 4.596-1.901z" fill="#d43a2f"/><path d="m17 12c-1.103 0-2-.897-2-2s.897-2 2-2 2 .897 2 2-.897 2-2 2z" fill="#f44336"/><path d="m7 12c-1.103 0-2-.897-2-2s.897-2 2-2 2 .897 2 2c0 1.104-.897 2-2 2z" fill="#f44336"/><g fill="#d43a2f"><path d="m7 8c-1.103 0-2 .897-2 2 0 1.104.897 2 2 2z"/><path d="m17 8c-1.103 0-2 .897-2 2 0 1.104.897 2 2 2z"/></g></svg>